<svg xmlns="http://www.w3.org/2000/svg" xmlns:xlink="http://www.w3.org/1999/xlink" viewBox="0 0 512 512">
  <defs>
    <style>
      path {
        fill: url(#linear-gradient);
        stroke-width: 0px;
      }
    </style>
    <linearGradient id="linear-gradient" x1="252.28" y1="510.45" x2="259.53" y2="14.48" gradientUnits="userSpaceOnUse">
      <stop offset="0" stop-color="#e2e4e4" stop-opacity="0"/>
      <stop offset="1" stop-color="#e2e4e4"/>
    </linearGradient>
  </defs>
  <path d="M256,512c-34.55,0-68.08-6.77-99.65-20.13-30.49-12.9-57.86-31.35-81.36-54.85-23.5-23.5-41.96-50.88-54.85-81.36C6.77,324.08,0,290.55,0,256s6.77-68.08,20.13-99.65c12.9-30.49,31.35-57.86,54.85-81.36,23.5-23.5,50.88-41.96,81.36-54.85C187.92,6.77,221.45,0,256,0s68.08,6.77,99.65,20.13c30.49,12.9,57.86,31.35,81.36,54.85,23.5,23.5,41.96,50.88,54.85,81.36,13.36,31.58,20.13,65.11,20.13,99.65s-6.77,68.08-20.13,99.65c-12.9,30.49-31.35,57.86-54.85,81.36-23.5,23.5-50.88,41.96-81.36,54.85-31.58,13.36-65.11,20.13-99.65,20.13ZM256,74.98c-48.35,0-93.81,18.83-128,53.02-34.19,34.19-53.02,79.65-53.02,128s18.83,93.81,53.02,128c34.19,34.19,79.65,53.02,128,53.02s93.81-18.83,128-53.02c34.19-34.19,53.02-79.65,53.02-128s-18.83-93.81-53.02-128c-34.19-34.19-79.65-53.02-128-53.02Z"/>
</svg>