<svg xmlns="http://www.w3.org/2000/svg" viewBox="0 0 1200 500"><circle fill="#083e52" cx="201.93" cy="190.77" r="124.34"/><circle fill="#62c9c6" cx="201.93" cy="190.77" r="93.86"/><circle fill="#083e52" cx="201.93" cy="190.77" r="62.17"/><circle fill="#fff" cx="233.02" cy="149.93" r="31.08"/><rect fill="#083e52" x="383.45" y="60.94" width="5.35" height="263.47"/><path fill="#083e52" d="M494.98,293.53c-18.76-9.96-33.49-23.84-44.2-41.63-10.72-17.79-16.08-37.94-16.08-60.44s5.36-42.65,16.08-60.44c10.71-17.79,25.45-31.67,44.2-41.63,18.75-9.97,39.92-14.95,63.5-14.95,20.57,0,39.11,3.65,55.62,10.93,16.5,7.29,30.22,17.79,41.15,31.51l-40.51,36.65c-14.58-17.57-32.26-26.36-53.05-26.36-12.22,0-23.1,2.68-32.63,8.04-9.54,5.36-16.93,12.91-22.18,22.67-5.25,9.76-7.88,20.95-7.88,33.6s2.62,23.84,7.88,33.59c5.25,9.76,12.64,17.31,22.18,22.67,9.53,5.36,20.41,8.04,32.63,8.04,20.79,0,38.47-8.79,53.05-26.36l40.51,36.65c-10.93,13.72-24.65,24.22-41.15,31.51-16.51,7.28-35.04,10.93-55.62,10.93-23.58,0-44.74-4.98-63.5-14.95"/><polygon fill="#083e52" points="864.22 254.79 864.22 303.98 683.54 303.98 683.54 78.93 860.04 78.93 860.04 128.12 746.55 128.12 746.55 166.06 846.54 166.06 846.54 213.64 746.55 213.64 746.55 254.79 864.22 254.79"/><path fill="#083e52" d="M948.61,293.37c-18.97-10.07-33.87-24-44.69-41.8-10.82-17.79-16.24-37.82-16.24-60.12s5.41-42.33,16.24-60.12c10.82-17.79,25.72-31.72,44.69-41.8,18.97-10.07,40.35-15.11,64.14-15.11s45.17,5.04,64.14,15.11c18.97,10.08,33.87,24.01,44.69,41.8,10.82,17.79,16.24,37.83,16.24,60.12s-5.42,42.33-16.24,60.12c-10.82,17.79-25.72,31.72-44.69,41.8-18.97,10.08-40.35,15.11-64.14,15.11s-45.17-5.03-64.14-15.11M1043.62,247.72c9.21-5.36,16.5-12.91,21.86-22.67,5.36-9.75,8.04-20.95,8.04-33.59s-2.68-23.84-8.04-33.6c-5.36-9.75-12.65-17.31-21.86-22.67-9.22-5.35-19.51-8.04-30.86-8.04s-21.65,2.68-30.86,8.04c-9.22,5.36-16.51,12.91-21.86,22.67-5.36,9.76-8.04,20.95-8.04,33.6s2.68,23.84,8.04,33.59c5.36,9.76,12.64,17.31,21.86,22.67,9.21,5.36,19.5,8.04,30.86,8.04s21.65-2.68,30.86-8.04"/><path fill="#083e52" d="M102.71,405.75c-4.63-2.55-8.27-6.09-10.9-10.61-2.64-4.52-3.95-9.58-3.95-15.19s1.32-10.66,3.95-15.19c2.63-4.52,6.28-8.06,10.94-10.61,4.66-2.55,9.87-3.83,15.64-3.83,4.33,0,8.32.72,11.98,2.16,3.66,1.44,6.77,3.55,9.32,6.32l-3.91,3.91c-4.55-4.61-10.29-6.91-17.23-6.91-4.61,0-8.79,1.05-12.56,3.16-3.77,2.11-6.73,4.99-8.86,8.65-2.14,3.66-3.2,7.77-3.2,12.32s1.07,8.66,3.2,12.32c2.13,3.66,5.09,6.55,8.86,8.66,3.77,2.11,7.96,3.16,12.56,3.16,6.99,0,12.73-2.33,17.23-6.99l3.91,3.91c-2.55,2.77-5.67,4.9-9.36,6.37-3.69,1.47-7.7,2.2-12.02,2.2-5.77,0-10.97-1.28-15.6-3.83"/><path fill="#083e52" d="M151.52,354.49c-.83-.83-1.25-1.83-1.25-2.99s.42-2.08,1.25-2.91c.83-.83,1.86-1.25,3.08-1.25s2.25.4,3.08,1.21c.83.81,1.25,1.76,1.25,2.87,0,1.22-.42,2.25-1.25,3.08-.83.83-1.86,1.25-3.08,1.25s-2.25-.42-3.08-1.25M151.6,365.31h5.91v43.77h-5.91v-43.77Z"/><path fill="#083e52" d="M185.84,367.23c2.75-1.5,6.14-2.25,10.19-2.25v5.74l-1.41-.08c-4.61,0-8.21,1.41-10.82,4.24-2.61,2.83-3.91,6.8-3.91,11.9v22.3h-5.91v-43.77h5.66v8.57c1.39-2.94,3.45-5.16,6.2-6.66"/><path fill="#083e52" d="M246.79,365.31v43.77h-5.66v-7.99c-1.55,2.66-3.69,4.73-6.41,6.2-2.72,1.47-5.82,2.2-9.32,2.2-5.71,0-10.22-1.59-13.52-4.78-3.3-3.19-4.95-7.86-4.95-14.02v-25.38h5.91v24.8c0,4.61,1.14,8.1,3.41,10.48,2.27,2.39,5.52,3.58,9.74,3.58,4.61,0,8.24-1.4,10.9-4.2,2.66-2.8,3.99-6.7,3.99-11.69v-22.96h5.91Z"/><path fill="#083e52" d="M303.88,365.31v38.44c0,7.43-1.82,12.94-5.45,16.52-3.63,3.58-9.11,5.37-16.43,5.37-4.05,0-7.89-.6-11.53-1.79-3.63-1.19-6.59-2.84-8.86-4.95l2.99-4.49c2.11,1.89,4.67,3.36,7.7,4.41,3.02,1.05,6.2,1.58,9.53,1.58,5.55,0,9.62-1.29,12.23-3.87,2.61-2.58,3.91-6.59,3.91-12.02v-5.57c-1.83,2.77-4.23,4.88-7.2,6.32-2.97,1.45-6.25,2.16-9.86,2.16-4.11,0-7.83-.9-11.19-2.7-3.36-1.8-5.99-4.33-7.91-7.57-1.91-3.25-2.87-6.92-2.87-11.03s.96-7.77,2.87-10.98c1.91-3.22,4.54-5.71,7.86-7.49,3.33-1.78,7.07-2.66,11.23-2.66,3.72,0,7.07.75,10.07,2.25,3,1.5,5.41,3.66,7.24,6.49v-8.4h5.66ZM290.06,400.14c2.55-1.36,4.54-3.26,5.95-5.7,1.41-2.44,2.12-5.21,2.12-8.32s-.71-5.87-2.12-8.28c-1.41-2.41-3.38-4.3-5.91-5.66-2.53-1.36-5.4-2.04-8.61-2.04s-6.01.67-8.53,2c-2.53,1.33-4.49,3.22-5.91,5.66-1.41,2.44-2.12,5.22-2.12,8.32s.71,5.88,2.12,8.32c1.41,2.44,3.38,4.34,5.91,5.7,2.52,1.36,5.37,2.04,8.53,2.04s6.02-.68,8.57-2.04"/><path fill="#083e52" d="M329.42,348.17h7.9l-13.48,10.32h-5.82l11.4-10.32ZM320.43,365.31h5.91v43.77h-5.91v-43.77Z"/><path fill="#083e52" d="M371.28,369.26c3.05,2.86,4.58,7.09,4.58,12.69v27.13h-5.66v-6.82c-1.33,2.28-3.29,4.05-5.87,5.33-2.58,1.28-5.65,1.91-9.19,1.91-4.88,0-8.77-1.17-11.65-3.49-2.89-2.33-4.33-5.41-4.33-9.24s1.34-6.71,4.04-8.99c2.69-2.27,6.98-3.41,12.86-3.41h13.9v-2.66c0-3.77-1.05-6.64-3.16-8.61-2.11-1.97-5.19-2.96-9.24-2.96-2.77,0-5.44.46-7.99,1.37-2.55.91-4.74,2.18-6.57,3.79l-2.66-4.41c2.22-1.89,4.88-3.34,7.99-4.37,3.11-1.03,6.38-1.54,9.82-1.54,5.71,0,10.1,1.43,13.15,4.28M364.62,402.55c2.39-1.53,4.16-3.73,5.32-6.62v-7.16h-13.73c-7.49,0-11.23,2.61-11.23,7.82,0,2.55.97,4.56,2.91,6.03,1.94,1.47,4.66,2.2,8.15,2.2s6.18-.76,8.57-2.29"/><path fill="#083e52" d="M393.45,407.96c-3.25-1.03-5.78-2.32-7.61-3.87l2.66-4.66c1.83,1.44,4.13,2.62,6.91,3.54,2.77.92,5.66,1.37,8.65,1.37,3.99,0,6.95-.62,8.86-1.87,1.91-1.25,2.87-3.01,2.87-5.28,0-1.61-.53-2.87-1.58-3.79-1.05-.92-2.39-1.61-3.99-2.08-1.61-.47-3.75-.93-6.41-1.37-3.55-.67-6.41-1.34-8.57-2.04-2.16-.69-4.01-1.87-5.53-3.54-1.53-1.66-2.29-3.97-2.29-6.91,0-3.66,1.53-6.66,4.58-8.99,3.05-2.33,7.29-3.49,12.73-3.49,2.83,0,5.66.37,8.49,1.12,2.83.75,5.16,1.74,6.99,2.96l-2.58,4.74c-3.61-2.5-7.91-3.74-12.9-3.74-3.77,0-6.62.67-8.53,2-1.91,1.33-2.87,3.08-2.87,5.24,0,1.67.54,3,1.62,4,1.08,1,2.43,1.73,4.04,2.2,1.61.47,3.83.96,6.66,1.46,3.5.67,6.3,1.33,8.4,2,2.11.67,3.91,1.8,5.41,3.41,1.5,1.61,2.25,3.83,2.25,6.66,0,3.83-1.6,6.87-4.78,9.11-3.19,2.25-7.61,3.37-13.27,3.37-3.55,0-6.95-.51-10.19-1.54"/><path fill="#083e52" d="M455.65,350.83h23.72c6.16,0,11.59,1.24,16.31,3.7,4.71,2.47,8.38,5.91,10.98,10.32,2.61,4.41,3.91,9.44,3.91,15.1s-1.31,10.69-3.91,15.1c-2.61,4.41-6.27,7.85-10.98,10.32-4.72,2.47-10.15,3.7-16.31,3.7h-23.72v-58.25ZM479.03,403.76c5.1,0,9.57-1.01,13.4-3.04,3.83-2.02,6.8-4.83,8.9-8.4,2.11-3.58,3.16-7.7,3.16-12.36s-1.05-8.78-3.16-12.36c-2.11-3.58-5.08-6.38-8.9-8.4-3.83-2.03-8.29-3.04-13.4-3.04h-17.22v47.6h17.22Z"/><path fill="#083e52" d="M534.99,367.23c2.75-1.5,6.14-2.25,10.19-2.25v5.74l-1.41-.08c-4.61,0-8.21,1.41-10.82,4.24-2.61,2.83-3.91,6.8-3.91,11.9v22.3h-5.91v-43.77h5.66v8.57c1.39-2.94,3.45-5.16,6.2-6.66"/><path fill="#083e52" d="M553.13,408.17c-.86-.89-1.29-1.97-1.29-3.25s.43-2.34,1.29-3.2c.86-.86,1.9-1.29,3.12-1.29s2.27.43,3.16,1.29c.89.86,1.33,1.93,1.33,3.2s-.45,2.36-1.33,3.25c-.89.89-1.94,1.33-3.16,1.33s-2.26-.44-3.12-1.33"/><polygon fill="#083e52" points="645.04 350.83 645.04 409.08 639.96 409.08 602.52 361.82 602.52 409.08 596.36 409.08 596.36 350.83 601.44 350.83 638.96 398.1 638.96 350.83 645.04 350.83"/><path fill="#083e52" d="M700.87,389.03h-36.61c.33,4.55,2.08,8.22,5.24,11.03,3.16,2.8,7.16,4.2,11.98,4.2,2.72,0,5.21-.48,7.49-1.46,2.27-.97,4.24-2.4,5.91-4.29l3.33,3.83c-1.94,2.33-4.37,4.11-7.28,5.33-2.91,1.22-6.12,1.83-9.61,1.83-4.49,0-8.47-.96-11.94-2.87-3.47-1.91-6.17-4.56-8.11-7.95-1.94-3.38-2.91-7.21-2.91-11.48s.93-8.1,2.79-11.48c1.86-3.38,4.41-6.02,7.66-7.9,3.25-1.89,6.89-2.83,10.94-2.83s7.68.94,10.9,2.83c3.22,1.89,5.74,4.51,7.57,7.86,1.83,3.36,2.75,7.2,2.75,11.52l-.08,1.83ZM669.13,374.09c-2.86,2.69-4.48,6.2-4.87,10.53h31.04c-.39-4.33-2.01-7.83-4.87-10.53-2.86-2.69-6.42-4.04-10.69-4.04s-7.75,1.35-10.61,4.04"/><rect fill="#083e52" x="713.02" y="347.34" width="5.91" height="61.74"/><path fill="#083e52" d="M736.94,407.96c-3.25-1.03-5.78-2.32-7.61-3.87l2.66-4.66c1.83,1.44,4.13,2.62,6.91,3.54,2.77.92,5.66,1.37,8.65,1.37,3.99,0,6.95-.62,8.86-1.87,1.91-1.25,2.87-3.01,2.87-5.28,0-1.61-.53-2.87-1.58-3.79-1.05-.92-2.39-1.61-3.99-2.08-1.61-.47-3.75-.93-6.41-1.37-3.55-.67-6.41-1.34-8.57-2.04-2.16-.69-4.01-1.87-5.53-3.54-1.53-1.66-2.29-3.97-2.29-6.91,0-3.66,1.53-6.66,4.58-8.99,3.05-2.33,7.29-3.49,12.73-3.49,2.83,0,5.66.37,8.49,1.12,2.83.75,5.16,1.74,6.99,2.96l-2.58,4.74c-3.61-2.5-7.91-3.74-12.9-3.74-3.77,0-6.62.67-8.53,2-1.91,1.33-2.87,3.08-2.87,5.24,0,1.67.54,3,1.62,4,1.08,1,2.43,1.73,4.04,2.2,1.61.47,3.83.96,6.66,1.46,3.5.67,6.3,1.33,8.4,2,2.11.67,3.91,1.8,5.41,3.41,1.5,1.61,2.25,3.83,2.25,6.66,0,3.83-1.6,6.87-4.78,9.11-3.19,2.25-7.61,3.37-13.27,3.37-3.55,0-6.95-.51-10.19-1.54"/><path fill="#083e52" d="M782.59,406.63c-3.38-1.91-6.05-4.56-7.99-7.95-1.94-3.38-2.91-7.21-2.91-11.48s.97-8.1,2.91-11.48c1.94-3.38,4.6-6.02,7.99-7.9,3.38-1.89,7.18-2.83,11.4-2.83s8.02.94,11.4,2.83c3.38,1.89,6.03,4.52,7.95,7.9,1.91,3.39,2.87,7.21,2.87,11.48s-.96,8.1-2.87,11.48c-1.91,3.39-4.56,6.03-7.95,7.95-3.38,1.91-7.18,2.87-11.4,2.87s-8.02-.96-11.4-2.87M802.35,402.13c2.47-1.41,4.4-3.42,5.78-6.03,1.39-2.61,2.08-5.57,2.08-8.9s-.69-6.3-2.08-8.9c-1.39-2.61-3.32-4.62-5.78-6.03-2.47-1.42-5.26-2.12-8.36-2.12s-5.9.71-8.36,2.12c-2.47,1.41-4.41,3.42-5.82,6.03s-2.12,5.58-2.12,8.9.71,6.3,2.12,8.9c1.41,2.61,3.36,4.62,5.82,6.03,2.47,1.41,5.25,2.12,8.36,2.12s5.89-.71,8.36-2.12"/><path fill="#083e52" d="M863.68,369.76c3.25,3.19,4.87,7.84,4.87,13.94v25.38h-5.91v-24.8c0-4.55-1.14-8.02-3.41-10.4-2.28-2.38-5.52-3.58-9.74-3.58-4.72,0-8.45,1.4-11.19,4.2-2.75,2.8-4.12,6.67-4.12,11.61v22.97h-5.91v-43.77h5.66v8.07c1.61-2.66,3.84-4.73,6.7-6.2,2.86-1.47,6.17-2.2,9.95-2.2,5.49,0,9.86,1.6,13.11,4.78"/><path fill="#083e52" d="M953.21,383.99c2.08,2.47,3.12,5.65,3.12,9.53,0,4.99-1.84,8.83-5.53,11.53-3.69,2.69-9.14,4.04-16.35,4.04h-26.8v-58.25h25.13c6.49,0,11.53,1.3,15.1,3.91,3.58,2.61,5.37,6.3,5.37,11.07,0,3.22-.79,5.95-2.37,8.19-1.58,2.25-3.76,3.93-6.53,5.04,3.83.83,6.78,2.48,8.86,4.95M913.81,355.91v21.13h18.56c4.71,0,8.35-.9,10.9-2.7,2.55-1.8,3.83-4.42,3.83-7.87s-1.28-6.06-3.83-7.86c-2.55-1.8-6.19-2.7-10.9-2.7h-18.56ZM946.18,401.34c2.66-1.78,3.99-4.55,3.99-8.32,0-7.27-5.27-10.9-15.81-10.9h-20.55v21.89h20.55c5.21,0,9.15-.89,11.82-2.66"/><path fill="#083e52" d="M981,367.23c2.75-1.5,6.14-2.25,10.19-2.25v5.74l-1.41-.08c-4.6,0-8.21,1.41-10.82,4.24-2.61,2.83-3.91,6.8-3.91,11.9v22.3h-5.91v-43.77h5.66v8.57c1.39-2.94,3.45-5.16,6.2-6.66"/><path fill="#083e52" d="M1030.22,369.26c3.05,2.86,4.58,7.09,4.58,12.69v27.13h-5.66v-6.82c-1.33,2.28-3.29,4.05-5.87,5.33-2.58,1.28-5.65,1.91-9.19,1.91-4.88,0-8.77-1.17-11.65-3.49-2.89-2.33-4.33-5.41-4.33-9.24s1.34-6.71,4.04-8.99c2.69-2.27,6.98-3.41,12.86-3.41h13.9v-2.66c0-3.77-1.05-6.64-3.16-8.61-2.11-1.97-5.19-2.96-9.24-2.96-2.77,0-5.44.46-7.99,1.37-2.55.91-4.74,2.18-6.57,3.79l-2.66-4.41c2.22-1.89,4.88-3.34,7.99-4.37,3.11-1.03,6.38-1.54,9.82-1.54,5.71,0,10.1,1.43,13.15,4.28M1023.57,402.55c2.39-1.53,4.16-3.73,5.32-6.62v-7.16h-13.73c-7.49,0-11.23,2.61-11.23,7.82,0,2.55.97,4.56,2.91,6.03,1.94,1.47,4.66,2.2,8.15,2.2s6.18-.76,8.57-2.29"/><polygon fill="#083e52" points="1086.81 365.31 1067.34 409.08 1061.26 409.08 1041.87 365.31 1048.03 365.31 1064.42 402.59 1080.98 365.31 1086.81 365.31"/><path fill="#083e52" d="M1100.37,406.63c-3.38-1.91-6.05-4.56-7.99-7.95-1.94-3.38-2.91-7.21-2.91-11.48s.97-8.1,2.91-11.48c1.94-3.38,4.6-6.02,7.99-7.9,3.38-1.89,7.18-2.83,11.4-2.83s8.02.94,11.4,2.83c3.38,1.89,6.03,4.52,7.95,7.9,1.91,3.39,2.87,7.21,2.87,11.48s-.96,8.1-2.87,11.48c-1.91,3.39-4.56,6.03-7.95,7.95-3.38,1.91-7.18,2.87-11.4,2.87s-8.02-.96-11.4-2.87M1120.13,402.13c2.47-1.41,4.4-3.42,5.78-6.03,1.39-2.61,2.08-5.57,2.08-8.9s-.69-6.3-2.08-8.9c-1.39-2.61-3.32-4.62-5.78-6.03-2.47-1.42-5.26-2.12-8.36-2.12s-5.9.71-8.36,2.12c-2.47,1.41-4.41,3.42-5.82,6.03-1.41,2.61-2.12,5.58-2.12,8.9s.71,6.3,2.12,8.9c1.41,2.61,3.36,4.62,5.82,6.03,2.47,1.41,5.25,2.12,8.36,2.12s5.89-.71,8.36-2.12"/></svg>