<svg xmlns="http://www.w3.org/2000/svg" viewBox="0 0 1200 500"><path fill="#fff" d="M495.01,293.43c-18.75-9.96-33.47-23.83-44.18-41.61-10.71-17.78-16.06-37.91-16.06-60.4s5.35-42.62,16.06-60.4c10.71-17.78,25.43-31.65,44.18-41.61,18.74-9.96,39.89-14.94,63.46-14.94,20.56,0,39.09,3.65,55.58,10.92,16.49,7.28,30.2,17.78,41.13,31.49l-40.48,36.63c-14.57-17.56-32.24-26.35-53.01-26.35-12.21,0-23.08,2.68-32.61,8.03-9.53,5.36-16.92,12.91-22.17,22.65-5.25,9.75-7.87,20.94-7.87,33.57s2.62,23.83,7.87,33.57c5.24,9.75,12.63,17.3,22.17,22.65,9.53,5.36,20.4,8.03,32.61,8.03,20.77,0,38.44-8.78,53.01-26.35l40.48,36.63c-10.92,13.71-24.63,24.21-41.13,31.49-16.5,7.28-35.02,10.92-55.58,10.92-23.57,0-44.71-4.98-63.46-14.94Z"/><path fill="#fff" d="M864.01,254.71v49.16h-180.56V78.97h176.39v49.16h-113.41v37.91h99.92v47.55h-99.92v41.13h117.59Z"/><path fill="#fff" d="M948.35,293.27c-18.96-10.06-33.84-23.99-44.66-41.77-10.82-17.78-16.22-37.8-16.22-60.08s5.41-42.3,16.22-60.08c10.82-17.78,25.7-31.7,44.66-41.77,18.96-10.07,40.32-15.1,64.1-15.1s45.14,5.03,64.1,15.1c18.96,10.07,33.84,23.99,44.66,41.77,10.81,17.78,16.23,37.81,16.23,60.08s-5.41,42.3-16.23,60.08c-10.82,17.78-25.7,31.7-44.66,41.77-18.96,10.07-40.32,15.1-64.1,15.1s-45.14-5.03-64.1-15.1ZM1043.29,247.65c9.21-5.35,16.49-12.9,21.85-22.65,5.35-9.74,8.03-20.93,8.03-33.57s-2.68-23.83-8.03-33.57c-5.36-9.75-12.64-17.3-21.85-22.65-9.21-5.35-19.49-8.03-30.84-8.03s-21.64,2.68-30.84,8.03c-9.21,5.36-16.49,12.91-21.85,22.65-5.36,9.75-8.03,20.94-8.03,33.57s2.68,23.83,8.03,33.57c5.35,9.75,12.63,17.3,21.85,22.65,9.21,5.36,19.49,8.03,30.84,8.03s21.63-2.68,30.84-8.03Z"/><rect fill="#fff" x="383.56" y="60.99" width="5.35" height="263.3"/><path fill="#fff" d="M201.56,66.38c-68.68,0-124.35,55.67-124.35,124.35s55.67,124.35,124.35,124.35,124.35-55.67,124.35-124.35-55.67-124.35-124.35-124.35ZM201.56,284.6c-51.84,0-93.87-42.03-93.87-93.87s42.03-93.87,93.87-93.87,93.87,42.03,93.87,93.87-42.03,93.87-93.87,93.87Z"/><path fill="#fff" d="M232.64,180.98c-17.17,0-31.09-13.92-31.09-31.09,0-7.99,3.04-15.25,8-20.76-2.62-.34-5.28-.57-8-.57-34.28,0-62.18,27.89-62.18,62.18s27.89,62.18,62.18,62.18,62.18-27.89,62.18-62.18c0-8.56-1.74-16.73-4.89-24.16-5.52,8.65-15.18,14.4-26.2,14.4Z"/><path fill="#fff" d="M232.64,182.42c-17.93,0-32.53-14.59-32.53-32.53s14.59-32.53,32.53-32.53,32.53,14.59,32.53,32.53-14.59,32.53-32.53,32.53ZM232.64,120.24c-16.35,0-29.65,13.3-29.65,29.65s13.3,29.65,29.65,29.65,29.65-13.3,29.65-29.65-13.3-29.65-29.65-29.65Z"/><path fill="#fff" d="M102.36,405.44c-4.64-2.55-8.28-6.09-10.92-10.62-2.64-4.53-3.96-9.6-3.96-15.21s1.32-10.68,3.96-15.21c2.64-4.53,6.29-8.07,10.96-10.62,4.67-2.55,9.89-3.83,15.66-3.83,4.33,0,8.33.72,12,2.17,3.67,1.44,6.78,3.56,9.33,6.33l-3.92,3.92c-4.56-4.61-10.3-6.92-17.25-6.92-4.61,0-8.8,1.06-12.58,3.17-3.78,2.11-6.74,5-8.87,8.67-2.14,3.67-3.21,7.78-3.21,12.33s1.07,8.67,3.21,12.33c2.14,3.67,5.1,6.56,8.87,8.67,3.78,2.11,7.97,3.17,12.58,3.17,7,0,12.75-2.33,17.25-7l3.92,3.92c-2.56,2.78-5.68,4.9-9.37,6.37-3.69,1.47-7.71,2.21-12.04,2.21-5.78,0-10.99-1.28-15.62-3.83Z"/><path fill="#fff" d="M151.23,354.11c-.83-.83-1.25-1.83-1.25-3s.42-2.08,1.25-2.92c.83-.83,1.86-1.25,3.08-1.25s2.25.4,3.08,1.21c.83.81,1.25,1.76,1.25,2.87,0,1.22-.42,2.25-1.25,3.08-.83.83-1.86,1.25-3.08,1.25s-2.25-.42-3.08-1.25ZM151.31,364.95h5.92v43.83h-5.92v-43.83Z"/><path fill="#fff" d="M185.6,366.86c2.75-1.5,6.15-2.25,10.21-2.25v5.75l-1.42-.08c-4.61,0-8.22,1.42-10.83,4.25-2.61,2.83-3.92,6.81-3.92,11.92v22.33h-5.92v-43.83h5.67v8.58c1.39-2.94,3.46-5.17,6.21-6.67Z"/><path fill="#fff" d="M246.63,364.95v43.83h-5.67v-8c-1.56,2.67-3.7,4.74-6.42,6.21-2.72,1.47-5.83,2.21-9.33,2.21-5.72,0-10.24-1.6-13.54-4.79-3.31-3.19-4.96-7.87-4.96-14.04v-25.41h5.92v24.83c0,4.61,1.14,8.11,3.42,10.5,2.28,2.39,5.53,3.58,9.75,3.58,4.61,0,8.25-1.4,10.92-4.21,2.67-2.8,4-6.71,4-11.71v-23h5.92Z"/><path fill="#fff" d="M303.79,364.95v38.49c0,7.44-1.82,12.96-5.46,16.54-3.64,3.58-9.12,5.37-16.46,5.37-4.06,0-7.9-.6-11.54-1.79-3.64-1.2-6.6-2.85-8.87-4.96l3-4.5c2.11,1.89,4.68,3.36,7.71,4.42,3.03,1.05,6.21,1.58,9.54,1.58,5.55,0,9.64-1.29,12.25-3.87,2.61-2.58,3.92-6.6,3.92-12.04v-5.58c-1.83,2.78-4.24,4.89-7.21,6.33-2.97,1.45-6.26,2.17-9.87,2.17-4.11,0-7.85-.9-11.21-2.71-3.36-1.81-6-4.33-7.92-7.58-1.92-3.25-2.87-6.93-2.87-11.04s.96-7.78,2.87-11c1.92-3.22,4.54-5.72,7.87-7.5,3.33-1.78,7.08-2.67,11.25-2.67,3.72,0,7.08.75,10.08,2.25,3,1.5,5.42,3.67,7.25,6.5v-8.41h5.67ZM289.96,399.82c2.55-1.36,4.54-3.26,5.96-5.71,1.42-2.44,2.12-5.22,2.12-8.33s-.71-5.87-2.12-8.29c-1.42-2.42-3.39-4.3-5.92-5.67-2.53-1.36-5.4-2.04-8.62-2.04s-6.01.67-8.54,2c-2.53,1.33-4.5,3.22-5.92,5.67-1.42,2.45-2.12,5.22-2.12,8.33s.71,5.89,2.12,8.33c1.42,2.45,3.39,4.35,5.92,5.71,2.53,1.36,5.37,2.04,8.54,2.04s6.03-.68,8.58-2.04Z"/><path fill="#fff" d="M329.37,347.78h7.92l-13.5,10.33h-5.83l11.41-10.33ZM320.37,364.95h5.92v43.83h-5.92v-43.83Z"/><path fill="#fff" d="M371.28,368.9c3.05,2.86,4.58,7.1,4.58,12.71v27.16h-5.67v-6.83c-1.33,2.28-3.29,4.06-5.87,5.33-2.58,1.28-5.65,1.92-9.21,1.92-4.89,0-8.78-1.17-11.67-3.5-2.89-2.33-4.33-5.42-4.33-9.25s1.35-6.72,4.04-9c2.69-2.28,6.98-3.42,12.87-3.42h13.91v-2.67c0-3.78-1.06-6.65-3.17-8.62-2.11-1.97-5.19-2.96-9.25-2.96-2.78,0-5.44.46-8,1.38-2.56.92-4.75,2.18-6.58,3.79l-2.67-4.42c2.22-1.89,4.89-3.35,8-4.37,3.11-1.03,6.39-1.54,9.83-1.54,5.72,0,10.11,1.43,13.16,4.29ZM364.61,402.23c2.39-1.53,4.17-3.73,5.33-6.62v-7.17h-13.75c-7.5,0-11.25,2.61-11.25,7.83,0,2.56.97,4.57,2.92,6.04,1.94,1.47,4.67,2.21,8.17,2.21s6.19-.76,8.58-2.29Z"/><path fill="#fff" d="M393.48,407.65c-3.25-1.03-5.79-2.32-7.62-3.87l2.67-4.67c1.83,1.44,4.14,2.62,6.92,3.54,2.78.92,5.67,1.38,8.67,1.38,4,0,6.96-.62,8.87-1.87,1.92-1.25,2.87-3.01,2.87-5.29,0-1.61-.53-2.87-1.58-3.79-1.06-.92-2.39-1.61-4-2.08-1.61-.47-3.75-.93-6.42-1.38-3.56-.67-6.42-1.35-8.58-2.04-2.17-.69-4.01-1.87-5.54-3.54-1.53-1.67-2.29-3.97-2.29-6.92,0-3.67,1.53-6.67,4.58-9,3.05-2.33,7.3-3.5,12.75-3.5,2.83,0,5.67.38,8.5,1.12,2.83.75,5.17,1.74,7,2.96l-2.58,4.75c-3.61-2.5-7.92-3.75-12.91-3.75-3.78,0-6.62.67-8.54,2-1.92,1.33-2.87,3.08-2.87,5.25,0,1.67.54,3,1.62,4,1.08,1,2.43,1.74,4.04,2.21,1.61.47,3.83.96,6.67,1.46,3.5.67,6.3,1.33,8.42,2,2.11.67,3.92,1.81,5.42,3.42,1.5,1.61,2.25,3.83,2.25,6.67,0,3.83-1.6,6.88-4.79,9.12-3.2,2.25-7.62,3.37-13.29,3.37-3.56,0-6.96-.51-10.21-1.54Z"/><path fill="#fff" d="M455.77,350.45h23.75c6.17,0,11.61,1.24,16.33,3.71,4.72,2.47,8.39,5.92,11,10.33,2.61,4.42,3.92,9.46,3.92,15.12s-1.31,10.71-3.92,15.12c-2.61,4.42-6.28,7.86-11,10.33-4.72,2.47-10.17,3.71-16.33,3.71h-23.75v-58.33ZM479.18,403.44c5.11,0,9.58-1.01,13.41-3.04,3.83-2.03,6.8-4.83,8.92-8.42,2.11-3.58,3.17-7.71,3.17-12.37s-1.06-8.79-3.17-12.37c-2.11-3.58-5.08-6.39-8.92-8.42-3.83-2.03-8.3-3.04-13.41-3.04h-17.25v47.66h17.25Z"/><path fill="#fff" d="M535.21,366.86c2.75-1.5,6.15-2.25,10.21-2.25v5.75l-1.42-.08c-4.61,0-8.22,1.42-10.83,4.25-2.61,2.83-3.92,6.81-3.92,11.92v22.33h-5.92v-43.83h5.67v8.58c1.39-2.94,3.46-5.17,6.21-6.67Z"/><path fill="#fff" d="M553.38,407.86c-.86-.89-1.29-1.97-1.29-3.25s.43-2.35,1.29-3.21c.86-.86,1.9-1.29,3.12-1.29s2.28.43,3.17,1.29c.89.86,1.33,1.93,1.33,3.21s-.45,2.36-1.33,3.25c-.89.89-1.95,1.33-3.17,1.33s-2.26-.44-3.12-1.33Z"/><path fill="#fff" d="M645.4,350.45v58.33h-5.08l-37.49-47.33v47.33h-6.17v-58.33h5.08l37.58,47.33v-47.33h6.08Z"/><path fill="#fff" d="M701.31,388.69h-36.66c.33,4.56,2.08,8.24,5.25,11.04,3.17,2.81,7.17,4.21,12,4.21,2.72,0,5.22-.48,7.5-1.46,2.28-.97,4.25-2.4,5.92-4.29l3.33,3.83c-1.94,2.33-4.37,4.11-7.29,5.33-2.92,1.22-6.12,1.83-9.62,1.83-4.5,0-8.49-.96-11.96-2.87-3.47-1.92-6.18-4.57-8.12-7.96-1.94-3.39-2.92-7.22-2.92-11.5s.93-8.11,2.79-11.5c1.86-3.39,4.42-6.03,7.67-7.91,3.25-1.89,6.9-2.83,10.96-2.83s7.69.94,10.92,2.83c3.22,1.89,5.75,4.51,7.58,7.87,1.83,3.36,2.75,7.21,2.75,11.54l-.08,1.83ZM669.52,373.74c-2.86,2.7-4.49,6.21-4.87,10.54h31.08c-.39-4.33-2.01-7.84-4.87-10.54-2.86-2.69-6.43-4.04-10.71-4.04s-7.76,1.35-10.62,4.04Z"/><path fill="#fff" d="M713.48,346.95h5.92v61.83h-5.92v-61.83Z"/><path fill="#fff" d="M737.43,407.65c-3.25-1.03-5.79-2.32-7.62-3.87l2.67-4.67c1.83,1.44,4.14,2.62,6.92,3.54,2.78.92,5.67,1.38,8.67,1.38,4,0,6.96-.62,8.87-1.87,1.92-1.25,2.87-3.01,2.87-5.29,0-1.61-.53-2.87-1.58-3.79-1.06-.92-2.39-1.61-4-2.08-1.61-.47-3.75-.93-6.42-1.38-3.56-.67-6.42-1.35-8.58-2.04-2.17-.69-4.01-1.87-5.54-3.54-1.53-1.67-2.29-3.97-2.29-6.92,0-3.67,1.53-6.67,4.58-9,3.05-2.33,7.3-3.5,12.75-3.5,2.83,0,5.67.38,8.5,1.12,2.83.75,5.17,1.74,7,2.96l-2.58,4.75c-3.61-2.5-7.92-3.75-12.91-3.75-3.78,0-6.62.67-8.54,2-1.92,1.33-2.87,3.08-2.87,5.25,0,1.67.54,3,1.62,4,1.08,1,2.43,1.74,4.04,2.21,1.61.47,3.83.96,6.67,1.46,3.5.67,6.3,1.33,8.42,2,2.11.67,3.92,1.81,5.42,3.42,1.5,1.61,2.25,3.83,2.25,6.67,0,3.83-1.6,6.88-4.79,9.12-3.2,2.25-7.62,3.37-13.29,3.37-3.56,0-6.96-.51-10.21-1.54Z"/><path fill="#fff" d="M783.13,406.32c-3.39-1.92-6.05-4.57-8-7.96-1.94-3.39-2.92-7.22-2.92-11.5s.97-8.11,2.92-11.5c1.94-3.39,4.61-6.03,8-7.91,3.39-1.89,7.19-2.83,11.42-2.83s8.03.94,11.42,2.83c3.39,1.89,6.04,4.53,7.96,7.91,1.92,3.39,2.87,7.22,2.87,11.5s-.96,8.11-2.87,11.5c-1.92,3.39-4.57,6.04-7.96,7.96-3.39,1.92-7.19,2.87-11.42,2.87s-8.03-.96-11.42-2.87ZM802.92,401.82c2.47-1.42,4.4-3.43,5.79-6.04,1.39-2.61,2.08-5.58,2.08-8.92s-.7-6.3-2.08-8.92c-1.39-2.61-3.32-4.62-5.79-6.04-2.47-1.42-5.26-2.13-8.37-2.13s-5.9.71-8.37,2.13c-2.47,1.42-4.42,3.43-5.83,6.04-1.42,2.61-2.12,5.58-2.12,8.92s.71,6.31,2.12,8.92c1.42,2.61,3.36,4.62,5.83,6.04,2.47,1.42,5.26,2.12,8.37,2.12s5.9-.71,8.37-2.12Z"/><path fill="#fff" d="M864.33,369.4c3.25,3.2,4.87,7.85,4.87,13.96v25.41h-5.92v-24.83c0-4.55-1.14-8.03-3.42-10.42-2.28-2.39-5.53-3.58-9.75-3.58-4.72,0-8.46,1.4-11.21,4.21-2.75,2.81-4.12,6.68-4.12,11.62v23h-5.92v-43.83h5.67v8.08c1.61-2.67,3.85-4.73,6.71-6.21,2.86-1.47,6.18-2.21,9.96-2.21,5.5,0,9.87,1.6,13.12,4.79Z"/><path fill="#fff" d="M953.98,383.65c2.08,2.47,3.12,5.65,3.12,9.54,0,5-1.85,8.85-5.54,11.54-3.7,2.7-9.15,4.04-16.37,4.04h-26.83v-58.33h25.16c6.5,0,11.54,1.31,15.12,3.92,3.58,2.61,5.37,6.31,5.37,11.08,0,3.22-.79,5.96-2.37,8.21-1.58,2.25-3.76,3.93-6.54,5.04,3.83.83,6.79,2.49,8.87,4.96ZM914.53,355.53v21.16h18.58c4.72,0,8.36-.9,10.92-2.71,2.55-1.81,3.83-4.43,3.83-7.87s-1.28-6.07-3.83-7.87c-2.56-1.81-6.19-2.71-10.92-2.71h-18.58ZM946.94,401.03c2.67-1.78,4-4.55,4-8.33,0-7.28-5.28-10.92-15.83-10.92h-20.58v21.91h20.58c5.22,0,9.17-.89,11.83-2.67Z"/><path fill="#fff" d="M981.81,366.86c2.75-1.5,6.15-2.25,10.21-2.25v5.75l-1.42-.08c-4.61,0-8.22,1.42-10.83,4.25-2.61,2.83-3.92,6.81-3.92,11.92v22.33h-5.92v-43.83h5.67v8.58c1.39-2.94,3.46-5.17,6.21-6.67Z"/><path fill="#fff" d="M1031.1,368.9c3.05,2.86,4.58,7.1,4.58,12.71v27.16h-5.67v-6.83c-1.33,2.28-3.29,4.06-5.87,5.33-2.58,1.28-5.65,1.92-9.21,1.92-4.89,0-8.78-1.17-11.67-3.5-2.89-2.33-4.33-5.42-4.33-9.25s1.35-6.72,4.04-9c2.69-2.28,6.98-3.42,12.87-3.42h13.91v-2.67c0-3.78-1.06-6.65-3.17-8.62-2.11-1.97-5.19-2.96-9.25-2.96-2.78,0-5.44.46-8,1.38-2.56.92-4.75,2.18-6.58,3.79l-2.67-4.42c2.22-1.89,4.89-3.35,8-4.37,3.11-1.03,6.39-1.54,9.83-1.54,5.72,0,10.11,1.43,13.16,4.29ZM1024.43,402.23c2.39-1.53,4.17-3.73,5.33-6.62v-7.17h-13.75c-7.5,0-11.25,2.61-11.25,7.83,0,2.56.97,4.57,2.92,6.04,1.94,1.47,4.67,2.21,8.17,2.21s6.19-.76,8.58-2.29Z"/><path fill="#fff" d="M1087.76,364.95l-19.5,43.83h-6.08l-19.41-43.83h6.17l16.41,37.33,16.58-37.33h5.83Z"/><path fill="#fff" d="M1101.34,406.32c-3.39-1.92-6.05-4.57-8-7.96-1.94-3.39-2.92-7.22-2.92-11.5s.97-8.11,2.92-11.5c1.94-3.39,4.61-6.03,8-7.91,3.39-1.89,7.19-2.83,11.42-2.83s8.03.94,11.42,2.83c3.39,1.89,6.04,4.53,7.96,7.91,1.92,3.39,2.87,7.22,2.87,11.5s-.96,8.11-2.87,11.5c-1.92,3.39-4.57,6.04-7.96,7.96-3.39,1.92-7.19,2.87-11.42,2.87s-8.03-.96-11.42-2.87ZM1121.13,401.82c2.47-1.42,4.4-3.43,5.79-6.04,1.39-2.61,2.08-5.58,2.08-8.92s-.7-6.3-2.08-8.92c-1.39-2.61-3.32-4.62-5.79-6.04-2.47-1.42-5.26-2.13-8.37-2.13s-5.9.71-8.37,2.13c-2.47,1.42-4.42,3.43-5.83,6.04-1.42,2.61-2.12,5.58-2.12,8.92s.71,6.31,2.12,8.92c1.42,2.61,3.36,4.62,5.83,6.04,2.47,1.42,5.26,2.12,8.37,2.12s5.9-.71,8.37-2.12Z"/></svg>